<svg width="66" height="71" viewBox="0 0 66 71" fill="none" xmlns="http://www.w3.org/2000/svg">
<path d="M45.6879 0L25.375 7.34047C25.375 24.1962 33.3016 39.2469 45.6879 46.5774C58.0774 39.2436 66.0007 24.1929 66.0007 7.34047L45.6879 0Z" fill="#000080"/>
<g filter="url(#filter0_bdi_1918_5401)">
<path d="M43.9831 28.5163C43.9831 20.789 37.7188 14.5248 29.9915 14.5248C22.2642 14.5248 16 20.789 16 28.5163C16 36.2436 22.2642 42.5078 29.9915 42.5078C37.7188 42.5078 43.9831 36.2436 43.9831 28.5163Z" fill="url(#paint0_radial_1918_5401)" fill-opacity="0.2" shape-rendering="crispEdges"/>
<path d="M29.9915 14.7748C37.5808 14.7748 43.7331 20.9271 43.7331 28.5163C43.7331 36.1055 37.5808 42.2578 29.9915 42.2578C22.4023 42.2578 16.25 36.1055 16.25 28.5163C16.25 20.9271 22.4023 14.7748 29.9915 14.7748Z" stroke="white" stroke-width="0.5" shape-rendering="crispEdges"/>
</g>
<g filter="url(#filter1_d_1918_5401)">
<path d="M28.5328 33.4453C28.0965 33.4453 27.6602 33.2788 27.3271 32.9458L24.0699 29.6885C23.4038 29.0224 23.4038 27.9433 24.0699 27.2806C24.736 26.6144 25.8151 26.6144 26.4779 27.2806L28.5328 29.3355L34.0015 23.8668C34.6676 23.2007 35.7467 23.2007 36.4095 23.8668C37.0723 24.5329 37.0756 25.612 36.4095 26.2747L29.7351 32.9491C29.4021 33.2822 28.9658 33.4487 28.5295 33.4487L28.5328 33.4453Z" fill="white"/>
</g>
<defs>
<filter id="filter0_bdi_1918_5401" x="-34" y="-35.4746" width="127.983" height="127.982" filterUnits="userSpaceOnUse" color-interpolation-filters="sRGB">
<feFlood flood-opacity="0" result="BackgroundImageFix"/>
<feGaussianBlur in="BackgroundImageFix" stdDeviation="25"/>
<feComposite in2="SourceAlpha" operator="in" result="effect1_backgroundBlur_1918_5401"/>
<feColorMatrix in="SourceAlpha" type="matrix" values="0 0 0 0 0 0 0 0 0 0 0 0 0 0 0 0 0 0 127 0" result="hardAlpha"/>
<feOffset dy="12"/>
<feGaussianBlur stdDeviation="8"/>
<feComposite in2="hardAlpha" operator="out"/>
<feColorMatrix type="matrix" values="0 0 0 0 0 0 0 0 0 0 0 0 0 0 0 0 0 0 0.16 0"/>
<feBlend mode="normal" in2="effect1_backgroundBlur_1918_5401" result="effect2_dropShadow_1918_5401"/>
<feBlend mode="normal" in="SourceGraphic" in2="effect2_dropShadow_1918_5401" result="shape"/>
<feColorMatrix in="SourceAlpha" type="matrix" values="0 0 0 0 0 0 0 0 0 0 0 0 0 0 0 0 0 0 127 0" result="hardAlpha"/>
<feOffset dy="4"/>
<feGaussianBlur stdDeviation="25"/>
<feComposite in2="hardAlpha" operator="arithmetic" k2="-1" k3="1"/>
<feColorMatrix type="matrix" values="0 0 0 0 1 0 0 0 0 1 0 0 0 0 1 0 0 0 0.7 0"/>
<feBlend mode="normal" in2="shape" result="effect3_innerShadow_1918_5401"/>
</filter>
<filter id="filter1_d_1918_5401" x="18.5703" y="20.3672" width="23.3379" height="20.082" filterUnits="userSpaceOnUse" color-interpolation-filters="sRGB">
<feFlood flood-opacity="0" result="BackgroundImageFix"/>
<feColorMatrix in="SourceAlpha" type="matrix" values="0 0 0 0 0 0 0 0 0 0 0 0 0 0 0 0 0 0 127 0" result="hardAlpha"/>
<feOffset dy="2"/>
<feGaussianBlur stdDeviation="2.5"/>
<feComposite in2="hardAlpha" operator="out"/>
<feColorMatrix type="matrix" values="0 0 0 0 0 0 0 0 0 0 0 0 0 0 0 0 0 0 0.16 0"/>
<feBlend mode="normal" in2="BackgroundImageFix" result="effect1_dropShadow_1918_5401"/>
<feBlend mode="normal" in="SourceGraphic" in2="effect1_dropShadow_1918_5401" result="shape"/>
</filter>
<radialGradient id="paint0_radial_1918_5401" cx="0" cy="0" r="1" gradientUnits="userSpaceOnUse" gradientTransform="translate(29.9915 28.5163) scale(13.9915)">
<stop stop-color="white" stop-opacity="0"/>
<stop offset="1" stop-color="white"/>
</radialGradient>
</defs>
</svg>
