<svg width="235" height="32" viewBox="0 0 235 32" fill="none" xmlns="http://www.w3.org/2000/svg">
<path d="M22.7943 13.7852H15.9766V25.7355C16.8082 25.5445 17.6519 25.3863 18.5051 25.2623V17.3895C18.5051 16.3263 19.3232 15.464 20.332 15.464C21.3407 15.464 22.1588 16.3263 22.1588 17.3895V24.9516C22.4387 24.9445 22.7199 24.9388 23.0012 24.9388C23.2824 24.9388 23.5637 24.9445 23.8436 24.9516V17.3895C23.8436 16.3263 24.6616 15.464 25.6704 15.464C26.6791 15.464 27.4972 16.3263 27.4972 17.3895V25.2623C28.3518 25.3863 29.1942 25.5445 30.0258 25.7355V14.6075L22.7929 13.7852H22.7943Z" fill="#00043C"/>
<path d="M31.4122 12.3047H14.5938V13.7855H31.4122V12.3047Z" fill="#00043C"/>
<path d="M31.4122 6.55078H14.5938V8.03157H31.4122V6.55078Z" fill="#00043C"/>
<path d="M33.827 13.166C32.725 13.166 31.8285 12.2211 31.8285 11.0596H32.3991C32.3991 11.8891 33.0387 12.5632 33.8257 12.5632C34.6126 12.5632 35.2522 11.8891 35.2522 11.0596C35.2522 10.2301 34.6126 9.55599 33.8257 9.55599H12.1718C11.3848 9.55599 10.7452 10.2301 10.7452 11.0596C10.7452 11.8891 11.3848 12.5632 12.1718 12.5632C12.9587 12.5632 13.5983 11.8891 13.5983 11.0596H14.1689C14.1689 12.2211 13.2724 13.166 12.1704 13.166C11.0684 13.166 10.1719 12.2211 10.1719 11.0596C10.1719 9.89804 11.0684 8.95312 12.1704 8.95312H33.8243C34.9263 8.95312 35.8228 9.89804 35.8228 11.0596C35.8228 12.2211 34.9263 13.166 33.8243 13.166H33.827Z" fill="#00043C"/>
<path d="M33.8232 11.3592H12.3478C12.1896 11.3592 12.0625 11.2239 12.0625 11.0585C12.0625 10.8932 12.191 10.7578 12.3478 10.7578H33.8232C33.9814 10.7578 34.1085 10.8932 34.1085 11.0585C34.1085 11.2239 33.9801 11.3592 33.8232 11.3592Z" fill="#00043C"/>
<g style="mix-blend-mode:multiply" opacity="0.36">
<path d="M18.5052 24.6875C17.6492 24.8528 16.8068 25.0509 15.9766 25.2847V25.7308C16.8082 25.5398 17.6519 25.3816 18.5052 25.2576V24.6889V24.6875Z" fill="#00043C"/>
</g>
<g style="mix-blend-mode:multiply" opacity="0.36">
<path d="M30.0286 24.623C29.1956 24.4719 28.3519 24.3536 27.5 24.2695V25.2586C28.3546 25.3826 29.197 25.5408 30.0286 25.7318V24.6216V24.623Z" fill="#00043C"/>
</g>
<g style="mix-blend-mode:multiply" opacity="0.36">
<path d="M23.8424 24.1289C23.5111 24.136 23.1785 24.1446 22.8445 24.1617C22.6146 24.1731 22.3848 24.1873 22.1562 24.2044V24.947C22.4362 24.9398 22.7174 24.9341 22.9987 24.9341C23.2799 24.9341 23.5612 24.9398 23.8411 24.947V24.1289H23.8424Z" fill="#00043C"/>
</g>
<path d="M23.0015 28.9523C29.8206 28.9523 36.3652 29.91 42.4405 31.6673C37.0007 27.4387 30.279 24.9375 23.0015 24.9375C15.7241 24.9375 9.00099 27.4387 3.5625 31.6673C9.63922 29.91 16.1824 28.9523 23.0015 28.9523Z" fill="#00043C"/>
<g style="mix-blend-mode:multiply" opacity="0.36">
<path d="M6.1898 29.8203C5.28518 30.3918 4.40762 31.0075 3.5625 31.6645C3.65039 31.6389 3.73828 31.6161 3.82618 31.5904C4.58746 30.9648 5.37713 30.3733 6.19115 29.8203H6.1898Z" fill="#00043C"/>
<path d="M23.0227 28.3493C17.023 28.5517 11.26 29.488 5.85938 31.0472C11.2762 29.6861 17.0338 28.9521 23.0024 28.9521C29.8215 28.9521 36.366 29.9099 42.4414 31.6672C41.5665 30.9859 40.6565 30.3517 39.7181 29.7631C34.4094 28.6586 28.8046 28.1555 23.0213 28.3493H23.0227Z" fill="#00043C"/>
</g>
<g style="mix-blend-mode:screen" opacity="0.4">
<path d="M0.742188 17.8672C1.11945 19.5988 2.04029 20.8216 3.11527 20.8216C4.19026 20.8216 5.1111 19.5988 5.48836 17.8672H0.742188Z" fill="#00043C"/>
</g>
<path d="M45.6885 17.4367L41.0681 5.47924C41.2114 5.36095 41.3426 5.23981 41.4589 5.12294L41.1911 4.43172C41.0356 4.52578 40.8572 4.64265 40.653 4.78802C40.0269 5.23268 37.7525 6.46976 35.3835 6.06215C33.1429 5.67592 27.53 1.22073 24.1671 2.20412C23.8183 2.01599 23.4234 1.90625 23.0042 1.90625C22.5851 1.90625 22.1902 2.01457 21.8414 2.20412C18.4785 1.22073 12.8656 5.67735 10.625 6.06215C8.25596 6.46976 5.93696 5.29539 5.35552 4.78802C5.15134 4.61129 4.97421 4.47447 4.82141 4.37186L4.54015 5.09871C4.64968 5.21986 4.77814 5.34385 4.92553 5.46784L0.302404 17.4367C0.242908 17.5906 0.313222 17.766 0.459258 17.8287C0.494415 17.8443 0.530924 17.8515 0.567433 17.8515C0.679664 17.8515 0.786487 17.7802 0.832461 17.6633L5.26898 6.17902L9.70685 17.6633C9.76635 17.8173 9.93267 17.8914 10.0787 17.8287C10.2247 17.766 10.2951 17.5906 10.2356 17.4367L5.868 6.13341C5.87476 6.13769 5.88152 6.14196 5.88828 6.14624C8.30599 7.64128 11.4255 7.27073 14.783 6.14624C16.7977 5.47212 19.0559 5.40086 20.5865 5.45644C20.9273 6.52107 21.8792 7.28783 23.0042 7.28783C24.1293 7.28783 25.0812 6.52107 25.422 5.45644C26.9526 5.39943 29.2108 5.47069 31.2255 6.14624C34.5817 7.2693 37.6998 7.64128 40.1162 6.14909L35.754 17.4367C35.6945 17.5906 35.7648 17.766 35.9109 17.8287C35.946 17.8443 35.9825 17.8515 36.019 17.8515C36.1313 17.8515 36.2381 17.7802 36.2841 17.6633L40.7219 6.17902L45.1598 17.6633C45.2193 17.8173 45.3856 17.8914 45.5317 17.8287C45.6777 17.766 45.748 17.5906 45.6885 17.4367Z" fill="#00043C"/>
<g style="mix-blend-mode:multiply" opacity="0.36">
<path d="M24.7634 6.55078C24.305 7.00827 23.6884 7.29189 23.0083 7.29189C22.896 7.29189 22.7879 7.28191 22.6797 7.26766C22.9596 7.37883 23.2625 7.44296 23.5802 7.44296C24.3321 7.44296 25.0068 7.09806 25.4747 6.55221H24.7648L24.7634 6.55078Z" fill="#00043C"/>
</g>
<g style="mix-blend-mode:multiply" opacity="0.36">
<path d="M25.1641 6.03706C25.1708 6.02423 25.1789 6.01283 25.1857 6C25.1789 6.01283 25.1722 6.02423 25.1641 6.03706Z" fill="#00043C"/>
</g>
<g style="mix-blend-mode:multiply" opacity="0.36">
<path d="M25.0469 6.22529C25.0577 6.20962 25.0685 6.19394 25.0793 6.17969C25.0685 6.19536 25.0577 6.21104 25.0469 6.22529Z" fill="#00043C"/>
</g>
<g style="mix-blend-mode:multiply" opacity="0.36">
<path d="M24.306 2.17652C24.2614 2.18792 24.2168 2.19505 24.1722 2.20787C24.1465 2.19362 24.1208 2.18222 24.0938 2.16797C24.9605 2.59838 25.5622 3.52477 25.5622 4.6008C25.5622 4.90151 25.5135 5.19083 25.427 5.4602C25.6217 5.45307 25.8286 5.44737 26.045 5.44594C26.1017 5.22361 26.1342 4.9913 26.1342 4.75044C26.1342 3.53047 25.3621 2.50432 24.306 2.17509V2.17652Z" fill="#00043C"/>
</g>
<g style="mix-blend-mode:multiply" opacity="0.36">
<path d="M24.9219 6.38193C24.9313 6.37088 24.9408 6.36122 24.9489 6.35156C24.9395 6.3626 24.93 6.37227 24.9219 6.38193Z" fill="#00043C"/>
</g>
<g style="mix-blend-mode:multiply" opacity="0.36">
<path d="M22.6797 7.26953C22.6797 7.26953 22.681 7.26953 22.6824 7.26953C22.7351 7.27643 22.7879 7.28195 22.8406 7.28609C22.7865 7.28195 22.7324 7.27643 22.6797 7.26953Z" fill="#00043C"/>
</g>
<g style="mix-blend-mode:multiply" opacity="0.36">
<path d="M23.9103 2.08594C23.9103 2.08594 23.9076 2.08594 23.9062 2.08594C23.9657 2.10874 24.0225 2.13582 24.0793 2.1629C24.0239 2.13582 23.9671 2.11017 23.9103 2.08736V2.08594Z" fill="#00043C"/>
</g>
<g style="mix-blend-mode:multiply" opacity="0.36">
<path d="M24.4844 6.79708C24.5114 6.77713 24.5385 6.75575 24.5642 6.73438C24.5371 6.75575 24.5114 6.77713 24.4844 6.79708Z" fill="#00043C"/>
</g>
<g style="mix-blend-mode:multiply" opacity="0.36">
<path d="M23.2458 7.27734C23.1674 7.28424 23.0876 7.28977 23.0078 7.28977C23.0889 7.28977 23.1674 7.28424 23.2458 7.27734Z" fill="#00043C"/>
</g>
<g style="mix-blend-mode:multiply" opacity="0.36">
<path d="M23.5625 7.22741C23.6125 7.216 23.6626 7.20175 23.7126 7.1875C23.6626 7.20175 23.6139 7.216 23.5625 7.22741Z" fill="#00043C"/>
</g>
<g style="mix-blend-mode:multiply" opacity="0.36">
<path d="M24.2891 6.93132C24.3229 6.91137 24.3553 6.88999 24.3878 6.86719C24.3553 6.88857 24.3215 6.90994 24.2891 6.93132Z" fill="#00043C"/>
</g>
<path d="M41.021 18.1166H45.6522C45.6644 18.0268 45.6711 17.9427 45.6711 17.8672H35.7812C35.7812 19.3081 37.9948 23.4055 40.7262 23.4055C42.9708 23.4055 44.8652 20.6378 45.4697 18.852L41.021 18.1152V18.1166Z" fill="#00043C"/>
<g style="mix-blend-mode:screen" opacity="0.4">
<path d="M36.1953 17.8672C36.5726 19.5988 37.4934 20.8216 38.5684 20.8216C39.6434 20.8216 40.5642 19.5988 40.9415 17.8672H36.1953Z" fill="#00043C"/>
</g>
<path d="M46.0002 17.2891H35.4531V18.1143H46.0002V17.2891Z" fill="#00043C"/>
<g style="mix-blend-mode:multiply" opacity="0.48">
<path d="M41.032 23.3867C41.0861 23.381 41.1388 23.3739 41.1916 23.3653C41.22 23.3611 41.247 23.3554 41.2754 23.3497C41.3268 23.3397 41.3768 23.3283 41.4269 23.3155C41.4539 23.3083 41.4796 23.3026 41.5066 23.2955C41.5634 23.2798 41.6189 23.2613 41.6743 23.2428C41.6932 23.2356 41.7122 23.2299 41.7311 23.2242C41.8055 23.1972 41.8785 23.1687 41.9515 23.1359C41.9664 23.1302 41.9799 23.1216 41.9948 23.1159C42.0529 23.0889 42.1111 23.0618 42.1692 23.0318C42.1935 23.019 42.2165 23.0062 42.2409 22.9934C42.2895 22.9677 42.3369 22.9406 42.3842 22.9121C42.4099 22.8979 42.4342 22.8822 42.4586 22.8665C42.5059 22.8366 42.5532 22.8067 42.6006 22.7753C42.6235 22.7596 42.6452 22.7454 42.6682 22.7297C42.7263 22.6898 42.7844 22.647 42.8412 22.6043C42.8507 22.5972 42.8615 22.59 42.871 22.5829C42.9372 22.5316 43.0021 22.4789 43.0671 22.4247C43.0873 22.4076 43.1063 22.3905 43.1265 22.3734C43.1712 22.3349 43.2158 22.2964 43.2591 22.2551C43.2834 22.2337 43.3064 22.2109 43.3307 22.1881C43.3699 22.1511 43.4092 22.114 43.447 22.0755C43.4714 22.0513 43.4957 22.0285 43.5187 22.0028C43.5579 21.9629 43.5958 21.923 43.6336 21.8817C43.6553 21.8589 43.6769 21.8361 43.6972 21.8133C43.7513 21.7549 43.804 21.695 43.8554 21.6337C43.8757 21.6109 43.8946 21.5867 43.9149 21.5625C43.9527 21.5183 43.9892 21.4727 44.0258 21.4271C44.0501 21.3957 44.0744 21.3644 44.1001 21.333C44.1285 21.2974 44.1556 21.2617 44.1826 21.2247C44.2083 21.1905 44.234 21.1563 44.2597 21.1206C44.284 21.0864 44.3084 21.0537 44.3327 21.0195C44.3584 20.9824 44.3841 20.9468 44.4098 20.9097C44.4314 20.8784 44.4517 20.8484 44.472 20.8171C44.572 20.6688 44.6667 20.5178 44.7546 20.3681C44.7668 20.3468 44.7803 20.3254 44.7924 20.304C44.8195 20.257 44.8465 20.2085 44.8736 20.1615C44.8857 20.1401 44.8966 20.1201 44.9087 20.0988C44.9358 20.0503 44.9615 20.0019 44.9872 19.952C44.9953 19.9363 45.0034 19.9192 45.0115 19.9035C45.1345 19.6655 45.2427 19.4318 45.3333 19.208C45.3347 19.2037 45.3374 19.198 45.3387 19.1938C45.3604 19.1396 45.3806 19.0854 45.4009 19.0327C45.4036 19.0256 45.4063 19.0185 45.409 19.0113C45.4293 18.9572 45.4483 18.9044 45.4658 18.8517L43.9081 18.5938C43.5214 20.2413 42.0637 23.0105 40.2734 23.3653C40.3032 23.3696 40.3343 23.3739 40.364 23.3782C40.4046 23.3839 40.4452 23.3896 40.4857 23.3938C40.5642 23.401 40.6439 23.4052 40.7237 23.4052C40.8035 23.4052 40.8806 23.401 40.959 23.3938C40.9833 23.3924 41.0077 23.3881 41.0334 23.3853L41.032 23.3867Z" fill="#00043C"/>
</g>
<path d="M5.56784 18.1166H10.1991C10.2112 18.0268 10.218 17.9427 10.218 17.8672H0.328125C0.328125 19.3081 2.54165 23.4055 5.27307 23.4055C7.5177 23.4055 9.41211 20.6378 10.0165 18.852L5.56784 18.1152V18.1166Z" fill="#00043C"/>
<path d="M10.547 17.2891H0V18.1143H10.547V17.2891Z" fill="#00043C"/>
<g style="mix-blend-mode:multiply" opacity="0.48">
<path d="M5.5867 23.3867C5.64079 23.381 5.69352 23.3739 5.74626 23.3653C5.77465 23.3611 5.8017 23.3554 5.83009 23.3497C5.88148 23.3397 5.93151 23.3283 5.98154 23.3155C6.00858 23.3083 6.03427 23.3026 6.06132 23.2955C6.11811 23.2798 6.17355 23.2613 6.22899 23.2428C6.24792 23.2356 6.26685 23.2299 6.28578 23.2242C6.36015 23.1972 6.43317 23.1687 6.50619 23.1359C6.52106 23.1302 6.53458 23.1216 6.54946 23.1159C6.6076 23.0889 6.66575 23.0618 6.72389 23.0318C6.74823 23.019 6.77122 23.0062 6.79555 22.9934C6.84423 22.9677 6.89156 22.9406 6.93889 22.9121C6.96458 22.8979 6.98892 22.8822 7.01326 22.8665C7.06058 22.8366 7.10791 22.8067 7.15524 22.7753C7.17822 22.7596 7.19986 22.7454 7.22285 22.7297C7.28099 22.6898 7.33913 22.647 7.39592 22.6043C7.40539 22.5972 7.41621 22.59 7.42567 22.5829C7.49193 22.5316 7.55684 22.4789 7.62174 22.4247C7.64202 22.4076 7.66095 22.3905 7.68124 22.3734C7.72586 22.3349 7.77048 22.2964 7.81375 22.2551C7.83809 22.2337 7.86108 22.2109 7.88542 22.1881C7.92463 22.1511 7.96384 22.114 8.0017 22.0755C8.02604 22.0513 8.05038 22.0285 8.07337 22.0028C8.11258 21.9629 8.15044 21.923 8.18831 21.8817C8.20994 21.8589 8.23158 21.8361 8.25186 21.8133C8.30595 21.7549 8.35868 21.695 8.41006 21.6337C8.43035 21.6109 8.44928 21.5867 8.46956 21.5625C8.50742 21.5183 8.54393 21.4727 8.58044 21.4271C8.60478 21.3957 8.62912 21.3644 8.65481 21.333C8.68321 21.2974 8.71025 21.2617 8.73729 21.2247C8.76298 21.1905 8.78868 21.1563 8.81437 21.1206C8.83871 21.0864 8.86305 21.0537 8.88739 21.0195C8.91308 20.9824 8.93877 20.9468 8.96446 20.9097C8.98609 20.8784 9.00638 20.8484 9.02666 20.8171C9.12672 20.6688 9.22138 20.5178 9.30927 20.3681C9.32144 20.3468 9.33496 20.3254 9.34713 20.304C9.37417 20.257 9.40122 20.2085 9.42826 20.1615C9.44043 20.1401 9.45125 20.1201 9.46342 20.0988C9.49046 20.0503 9.51615 20.0019 9.54184 19.952C9.54996 19.9363 9.55807 19.9192 9.56618 19.9035C9.68923 19.6655 9.79741 19.4318 9.888 19.208C9.88935 19.2037 9.89206 19.198 9.89341 19.1938C9.91505 19.1396 9.93533 19.0854 9.95561 19.0327C9.95832 19.0256 9.96102 19.0185 9.96373 19.0113C9.98401 18.9572 10.0029 18.9044 10.0205 18.8517L8.4628 18.5938C8.07607 20.2413 6.61842 23.0105 4.82812 23.3653C4.85787 23.3696 4.88897 23.3739 4.91872 23.3782C4.95929 23.3839 4.99985 23.3896 5.04042 23.3938C5.11884 23.401 5.19862 23.4052 5.2784 23.4052C5.35818 23.4052 5.43526 23.401 5.51368 23.3938C5.53802 23.3924 5.56236 23.3881 5.58805 23.3853L5.5867 23.3867Z" fill="#00043C"/>
</g>
<path d="M24.1301 2.16631C24.1301 3.36206 23.0065 4.33263 23.0065 4.33263C23.0065 4.33263 21.8828 3.36349 21.8828 2.16631C21.8828 0.969141 23.0065 0 23.0065 0C23.0065 0 24.1301 0.969141 24.1301 2.16631Z" fill="#00043C"/>
<path d="M53.7617 7.05469H57.3125V20.4492H65.0117V23.8594H53.7617V7.05469ZM77.7852 17.4492C77.7852 17.9258 77.7539 18.3672 77.6914 18.7734H69.2188C69.375 19.5703 69.7148 20.1797 70.2383 20.6016C70.7617 21.0156 71.4297 21.2227 72.2422 21.2227C72.7734 21.2227 73.2812 21.1094 73.7656 20.8828C74.2578 20.6562 74.6055 20.3672 74.8086 20.0156L77.4453 21.6328C77.0156 22.4141 76.3359 23.0195 75.4062 23.4492C74.4766 23.8789 73.3984 24.0938 72.1719 24.0938C70.4375 24.0938 68.9688 23.5 67.7656 22.3125C66.5703 21.1172 65.9727 19.6484 65.9727 17.9062C65.9727 16.1953 66.5625 14.7578 67.7422 13.5938C68.9297 12.4219 70.3828 11.8359 72.1016 11.8359C73.6953 11.8359 75.0391 12.3789 76.1328 13.4648C77.2344 14.5508 77.7852 15.8789 77.7852 17.4492ZM69.2656 16.6172H74.3984C74.3281 16.0312 74.0547 15.543 73.5781 15.1523C73.1016 14.7617 72.5508 14.5664 71.9258 14.5664C71.2227 14.5664 70.6445 14.7461 70.1914 15.1055C69.7383 15.4648 69.4297 15.9688 69.2656 16.6172ZM88.0273 12.0469H91.4141V23.3555C91.4141 24.4336 91.1445 25.3828 90.6055 26.2031C90.0742 27.0234 89.3555 27.6445 88.4492 28.0664C87.543 28.4961 86.5234 28.7109 85.3906 28.7109C84.3594 28.7109 83.3359 28.5391 82.3203 28.1953C81.3125 27.8594 80.5352 27.4062 79.9883 26.8359L81.5938 24.4805C82.6016 25.2852 83.8359 25.6875 85.2969 25.6875C86.0312 25.6875 86.668 25.4609 87.207 25.0078C87.7539 24.5547 88.0273 23.9805 88.0273 23.2852V22.1602C87.7383 22.6211 87.2695 23 86.6211 23.2969C85.9727 23.5938 85.2812 23.7422 84.5469 23.7422C83.5391 23.7422 82.6133 23.4766 81.7695 22.9453C80.9258 22.4141 80.2617 21.6914 79.7773 20.7773C79.293 19.8555 79.0508 18.8516 79.0508 17.7656C79.0508 16.6875 79.293 15.6914 79.7773 14.7773C80.2617 13.8633 80.9258 13.1406 81.7695 12.6094C82.6133 12.0781 83.5391 11.8125 84.5469 11.8125C85.2812 11.8125 85.9727 11.9648 86.6211 12.2695C87.2695 12.5664 87.7383 12.9492 88.0273 13.418V12.0469ZM85.2969 20.625C85.8672 20.625 86.3984 20.4922 86.8906 20.2266C87.3906 19.9531 87.7695 19.6055 88.0273 19.1836V16.3945C87.7695 15.9648 87.3906 15.6133 86.8906 15.3398C86.3984 15.0664 85.8672 14.9297 85.2969 14.9297C84.4688 14.9297 83.7734 15.2031 83.2109 15.75C82.6484 16.2891 82.3672 16.9609 82.3672 17.7656C82.3672 18.5781 82.6484 19.2578 83.2109 19.8047C83.7734 20.3516 84.4688 20.625 85.2969 20.625ZM101.797 12.0703H105.184V23.8594H101.797V22.4648C101.461 22.9648 101.004 23.3633 100.426 23.6602C99.8555 23.9492 99.2422 24.0938 98.5859 24.0938C97.0938 24.0938 95.918 23.6172 95.0586 22.6641C94.207 21.7109 93.7812 20.3984 93.7812 18.7266V12.0703H97.168V18.1758C97.168 18.9805 97.3711 19.6055 97.7773 20.0508C98.1914 20.4961 98.75 20.7188 99.4531 20.7188C99.9141 20.7188 100.355 20.6016 100.777 20.3672C101.207 20.125 101.547 19.8008 101.797 19.3945V12.0703ZM121.203 11.8359C122.617 11.8359 123.773 12.2695 124.672 13.1367C125.57 13.9961 126.02 15.1289 126.02 16.5352V23.8594H122.609V17.2383C122.609 16.5352 122.426 15.9805 122.059 15.5742C121.691 15.1602 121.195 14.9531 120.57 14.9531C120.156 14.9531 119.754 15.0742 119.363 15.3164C118.973 15.5508 118.672 15.8477 118.461 16.207V23.8594H115.074V17.2383C115.074 16.543 114.887 15.9883 114.512 15.5742C114.145 15.1602 113.676 14.9531 113.105 14.9531C112.621 14.9531 112.188 15.0742 111.805 15.3164C111.422 15.5586 111.137 15.8789 110.949 16.2773V23.8594H107.562V12.0703H110.949V13.418C111.262 12.9727 111.707 12.5977 112.285 12.293C112.863 11.9883 113.539 11.8359 114.312 11.8359C115.828 11.8359 116.922 12.3867 117.594 13.4883C117.984 13.0273 118.5 12.6367 119.141 12.3164C119.781 11.9961 120.469 11.8359 121.203 11.8359ZM130.613 24.0938C130.004 24.0938 129.484 23.8867 129.055 23.4727C128.633 23.0508 128.422 22.5391 128.422 21.9375C128.422 21.3438 128.633 20.8398 129.055 20.4258C129.484 20.0117 130.004 19.8047 130.613 19.8047C131.23 19.8047 131.75 20.0117 132.172 20.4258C132.602 20.832 132.816 21.3359 132.816 21.9375C132.816 22.5391 132.602 23.0508 132.172 23.4727C131.75 23.8867 131.23 24.0938 130.613 24.0938ZM146.574 23.8594L145.52 21.0469H139.039L137.961 23.8594H134.188L140.867 7.05469H143.738L150.441 23.8594H146.574ZM140.211 18H144.348L142.309 12.6328L140.211 18ZM152.023 6.97266C152.43 6.56641 152.914 6.36328 153.477 6.36328C154.039 6.36328 154.523 6.56641 154.93 6.97266C155.336 7.37109 155.539 7.84766 155.539 8.40234C155.539 8.96484 155.336 9.44922 154.93 9.85547C154.523 10.2617 154.039 10.4648 153.477 10.4648C152.914 10.4648 152.43 10.2617 152.023 9.85547C151.617 9.44922 151.414 8.96484 151.414 8.40234C151.414 7.84766 151.617 7.37109 152.023 6.97266ZM151.789 12.0703H155.176V23.8594H151.789V12.0703Z" fill="#00043C"/>
</svg>
